<?xml version="1.0" encoding="UTF-8" standalone="no"?>
<!-- Created with Inkscape (http://www.inkscape.org/) -->

<svg
   width="388.14374mm"
   height="125.94167mm"
   viewBox="0 0 388.14374 125.94167"
   version="1.1"
   id="svg1"
   xml:space="preserve"
   inkscape:version="1.3 (0e150ed, 2023-07-21)"
   sodipodi:docname="OpenMP logo.svg"
   xmlns:inkscape="http://www.inkscape.org/namespaces/inkscape"
   xmlns:sodipodi="http://sodipodi.sourceforge.net/DTD/sodipodi-0.dtd"
   xmlns="http://www.w3.org/2000/svg"
   xmlns:svg="http://www.w3.org/2000/svg"><sodipodi:namedview
     id="namedview1"
     pagecolor="#ffffff"
     bordercolor="#000000"
     borderopacity="0.25"
     inkscape:showpageshadow="2"
     inkscape:pageopacity="0.0"
     inkscape:pagecheckerboard="0"
     inkscape:deskcolor="#d1d1d1"
     inkscape:document-units="mm"
     inkscape:zoom="0.42926092"
     inkscape:cx="724.50108"
     inkscape:cy="194.52039"
     inkscape:window-width="1512"
     inkscape:window-height="854"
     inkscape:window-x="0"
     inkscape:window-y="38"
     inkscape:window-maximized="1"
     inkscape:current-layer="layer1" /><defs
     id="defs1"><clipPath
       clipPathUnits="userSpaceOnUse"
       id="clipPath14"><path
         d="m 41.76,726.147 h 145.328 v 38.201 H 41.76 Z"
         transform="translate(-126.1122,-764.19312)"
         id="path14" /></clipPath><clipPath
       clipPathUnits="userSpaceOnUse"
       id="clipPath16"><path
         d="m 41.76,726.147 h 145.328 v 38.201 H 41.76 Z"
         transform="translate(-64.091102,-746.66762)"
         id="path16" /></clipPath><clipPath
       clipPathUnits="userSpaceOnUse"
       id="clipPath18"><path
         d="m 41.76,726.147 h 145.328 v 38.201 H 41.76 Z"
         transform="translate(-178.1878,-754.66612)"
         id="path18" /></clipPath><clipPath
       clipPathUnits="userSpaceOnUse"
       id="clipPath20"><path
         d="m 41.76,726.147 h 145.328 v 38.201 H 41.76 Z"
         transform="translate(-124.3948,-734.64862)"
         id="path20" /></clipPath><clipPath
       clipPathUnits="userSpaceOnUse"
       id="clipPath22"><path
         d="m 41.76,726.147 h 145.328 v 38.201 H 41.76 Z"
         transform="translate(-83.480702,-741.72572)"
         id="path22" /></clipPath><clipPath
       clipPathUnits="userSpaceOnUse"
       id="clipPath24"><path
         d="m 41.76,726.147 h 145.328 v 38.201 H 41.76 Z"
         transform="translate(-92.1916,-748.55202)"
         id="path24" /></clipPath><clipPath
       clipPathUnits="userSpaceOnUse"
       id="clipPath26"><path
         d="m 41.76,726.147 h 145.328 v 38.201 H 41.76 Z"
         transform="translate(-67.232102,-730.92112)"
         id="path26" /></clipPath><clipPath
       clipPathUnits="userSpaceOnUse"
       id="clipPath28"><path
         d="m 41.76,726.147 h 145.328 v 38.201 H 41.76 Z"
         transform="translate(-187.08651,-730.87972)"
         id="path28" /></clipPath></defs><g
     inkscape:label="Layer 1"
     inkscape:groupmode="layer"
     id="layer1"
     transform="translate(80.750679,-85.473747)"><path
       id="path13"
       d="m 0,0 h 12.04 c 1.535,-5.967 3.071,-11.936 4.607,-17.903 h 0.02 C 18.189,-11.936 19.71,-5.967 21.232,0 h 12.02 v -29.544 h -7.497 c -0.006,7.439 -0.014,14.881 -0.02,22.32 -1.906,-7.439 -3.813,-14.881 -5.718,-22.32 h -6.803 c -1.906,7.46 -3.812,14.922 -5.718,22.383 V -29.544 H 0 Z"
       style="fill:#00737d;fill-opacity:1;fill-rule:evenodd;stroke:none"
       transform="matrix(2.4373869,0,0,-2.4373869,143.39588,103.8465)"
       clip-path="url(#clipPath14)" /><path
       id="path15"
       d="m 0,0 c -0.157,-0.955 -0.236,-1.872 -0.502,-2.723 -0.885,-2.831 -2.687,-5.035 -5.382,-6.051 -0.799,-0.302 -1.644,-0.39 -2.617,-0.544 -0.44,0.007 -0.88,0.013 -1.319,0.021 -1.775,0.273 -2.659,0.45 -3.915,1.194 -2.95,1.747 -4.629,4.825 -4.628,9.527 0,0.902 -0.037,1.81 0.104,2.617 0.196,1.114 0.37,2.125 0.67,3.099 0.834,2.705 3.018,4.621 5.717,5.465 0.507,0.158 1.034,0.217 1.612,0.314 0.307,0.021 0.614,0.042 0.921,0.063 C -4.03,12.984 -1.42,9.77 -0.356,5.57 0.003,4.155 0.294,1.784 0,0 M 3.727,3.727 C 3.551,4.742 3.48,5.747 3.204,6.659 c -1.344,4.444 -3.983,7.581 -8.376,8.962 -0.804,0.252 -1.691,0.345 -2.618,0.502 -0.453,0.021 -0.907,0.041 -1.361,0.062 -0.383,-0.013 -0.767,-0.027 -1.151,-0.041 -0.828,-0.14 -1.666,-0.153 -2.408,-0.377 -3.157,-0.951 -5.542,-2.674 -7.119,-5.193 -0.843,-1.349 -1.409,-2.861 -1.843,-4.585 -0.239,-0.95 -0.247,-1.965 -0.418,-3.016 -0.008,-0.461 -0.014,-0.921 -0.021,-1.382 0,-1.934 0.294,-3.452 0.733,-4.9 0.989,-3.262 2.781,-5.629 5.423,-7.286 0.742,-0.466 1.614,-0.969 2.533,-1.237 0.681,-0.196 1.364,-0.356 2.095,-0.502 0.474,-0.048 0.948,-0.097 1.424,-0.145 0.494,0.006 0.99,0.013 1.486,0.02 0.418,0.035 0.837,0.07 1.256,0.105 1.256,0.253 2.373,0.561 3.392,1.005 3.963,1.728 6.105,4.83 7.203,9.443 0.345,1.45 0.593,3.899 0.293,5.633"
       style="fill:#00737d;fill-opacity:1;fill-rule:evenodd;stroke:none"
       transform="matrix(2.4373869,0,0,-2.4373869,-7.7735403,146.56292)"
       clip-path="url(#clipPath16)" /><path
       id="path17"
       d="m 0,0 c -0.503,-3.231 -3.308,-3.094 -6.993,-3.057 0.006,2.184 0.014,4.369 0.02,6.554 3.126,0.011 5.719,0.306 6.68,-1.927 C -0.129,1.19 0.094,0.601 0,0 M 8.71,2.764 C 8.464,4.178 7.932,5.399 7.204,6.344 4.627,9.681 0.681,9.527 -5.13,9.527 h -11.056 v -29.544 h 9.213 v 10.929 c 2.621,-0.001 5.967,-0.239 8.187,0.251 4.863,1.074 7.686,3.666 7.685,9.591 0,0.749 -0.08,1.386 -0.189,2.01"
       style="fill:#00737d;fill-opacity:1;fill-rule:evenodd;stroke:none"
       transform="matrix(2.4373869,0,0,-2.4373869,270.32426,127.06748)"
       clip-path="url(#clipPath18)" /><path
       id="path19"
       d="m 0,0 h -3.35 v 10.49 c 0.002,1.883 0.129,4.047 -0.586,5.255 -0.627,1.062 -1.6,1.55 -3.078,1.781 -1.449,0.225 -2.566,-0.398 -3.371,-0.859 -2.189,-1.25 -2.219,-4.161 -2.219,-7.622 V 0 h -3.351 v 20.081 h 3.016 v -2.786 c 0.013,0.007 0.028,0.014 0.041,0.022 0.19,0.452 0.634,0.841 0.964,1.172 0.852,0.853 1.888,1.491 3.246,1.842 2.917,0.757 6.135,-0.41 7.347,-1.988 C 0.042,16.544 0,14.099 0,10.909 Z"
       style="fill:#00737d;fill-opacity:1;fill-rule:evenodd;stroke:none"
       transform="matrix(2.4373869,0,0,-2.4373869,139.2099,175.85788)"
       clip-path="url(#clipPath20)" /><path
       id="path21"
       d="M 0,0 C -0.549,-2.168 -1.679,-3.912 -3.749,-4.543 -4.139,-4.6 -4.53,-4.656 -4.92,-4.711 c -1.096,-0.176 -2.153,0.46 -2.743,0.838 -2.355,1.502 -3.158,5.785 -2.367,9.506 0.451,2.118 1.525,3.716 3.162,4.648 0.469,0.268 1.01,0.239 1.57,0.461 3.366,0.017 4.734,-2.219 5.361,-4.88 C 0.216,5.214 0.15,4.563 0.272,3.832 0.468,2.666 0.236,0.934 0,0 M 3.706,4.167 C 3.615,4.858 3.524,5.549 3.434,6.24 c -0.713,2.968 -2.041,5.186 -4.502,6.407 -1.043,0.518 -2.65,1.047 -4.355,0.775 -0.698,-0.111 -1.308,-0.203 -1.864,-0.44 -1.007,-0.429 -1.922,-1.156 -2.555,-1.968 -0.132,-0.182 -0.264,-0.363 -0.397,-0.544 v -0.043 c -0.007,0.859 -0.014,1.717 -0.021,2.576 h -3.057 c 0.007,-9.526 0.014,-19.055 0.021,-28.581 h 3.266 c 0.002,3.465 0.064,6.949 0.064,10.511 0.272,-0.286 0.543,-0.573 0.815,-0.858 0.715,-0.576 1.509,-1.077 2.492,-1.383 1.806,-0.56 4.141,-0.072 5.382,0.649 2.809,1.632 4.015,3.447 4.774,7.119 0.208,1.008 0.395,2.486 0.209,3.707"
       style="fill:#00737d;fill-opacity:1;fill-rule:evenodd;stroke:none"
       transform="matrix(2.4373869,0,0,-2.4373869,39.486417,158.60824)"
       clip-path="url(#clipPath22)" /><path
       id="path23"
       d="M 0,0 C 0.454,1.486 1.578,2.759 2.931,3.35 3.322,3.469 3.714,3.587 4.104,3.706 L 4.732,3.789 C 8.68,3.81 10.145,1.58 10.553,-1.948 H -0.356 C -0.227,-1.242 -0.187,-0.614 0,0 m 9.903,-8.837 c -0.48,-0.82 -1.041,-1.51 -1.841,-2.01 -0.469,-0.292 -1.019,-0.487 -1.655,-0.607 -3.278,-0.619 -5.746,1.59 -6.428,3.853 -0.133,0.545 -0.266,1.089 -0.398,1.634 -0.042,0.397 -0.084,0.795 -0.126,1.193 v 0.021 H 14.091 C 14.103,0.567 12.804,3.653 9.423,5.633 8.754,6.024 7.913,6.275 7.077,6.47 6.303,6.65 5.122,6.714 4.251,6.575 3.513,6.456 2.917,6.433 2.303,6.24 -0.546,5.344 -2.49,3.218 -3.392,0.439 c -0.256,-0.788 -0.365,-1.645 -0.524,-2.554 -0.145,-0.829 -0.03,-1.794 -0.063,-2.68 -0.153,-4.158 2.48,-7.851 5.487,-8.921 0.71,-0.252 1.445,-0.414 2.261,-0.564 0.636,-0.118 1.582,-0.172 2.282,-0.064 0.66,0.104 1.226,0.084 1.801,0.232 2.331,0.595 3.912,1.791 5.025,3.601 0.389,0.631 1.057,1.79 1.11,2.68 -1.144,0.146 -2.29,0.292 -3.434,0.44 -0.217,-0.482 -0.433,-0.964 -0.65,-1.446"
       style="fill:#00737d;fill-opacity:1;fill-rule:evenodd;stroke:none"
       transform="matrix(2.4373869,0,0,-2.4373869,60.718245,141.96991)"
       clip-path="url(#clipPath24)" /><path
       id="path25"
       d="M 0,0 C -0.005,-0.916 0,-1.869 0,-2.868 H -25.472 V -0.02 C -16.982,-0.014 -8.49,-0.007 0,0"
       style="fill:#00737d;fill-opacity:1;fill-rule:evenodd;stroke:none"
       transform="matrix(2.4373869,0,0,-2.4373869,-0.11770796,184.94324)"
       clip-path="url(#clipPath26)" /><path
       id="path27"
       d="M 0,0 V -2.806 C -37.036,-2.813 -74.086,-2.82 -111.123,-2.827 V 0.02 C -73.985,0.02 -37.103,0.002 0,0"
       style="fill:#00737d;fill-opacity:1;fill-rule:evenodd;stroke:none"
       transform="matrix(2.4373869,0,0,-2.4373869,292.01385,185.04414)"
       clip-path="url(#clipPath28)" /><path
       id="path29"
       d="m 265.55825,167.475 c 0.68552,0 1.34961,0.17137 1.99942,0.51413 0.64267,0.34276 1.14967,0.84976 1.51385,1.51385 0.35704,0.64981 0.5427,1.33532 0.5427,2.05654 0,0.70694 -0.18566,1.38532 -0.5427,2.02799 -0.34276,0.64981 -0.84261,1.1568 -1.48528,1.51384 -0.64981,0.34276 -1.32819,0.51414 -2.02799,0.51414 -0.72835,0 -1.41387,-0.17138 -2.05654,-0.51414 -0.64981,-0.35704 -1.15681,-0.86403 -1.51385,-1.51384 -0.34275,-0.64267 -0.51413,-1.32105 -0.51413,-2.02799 0,-0.72122 0.17852,-1.40673 0.5427,-2.05654 0.35704,-0.66409 0.86403,-1.17109 1.51384,-1.51385 0.6641,-0.34275 1.34247,-0.51413 2.02798,-0.51413 z m 0,0.65695 c -0.59268,0 -1.16394,0.1571 -1.71378,0.45701 -0.53556,0.28563 -0.95687,0.70694 -1.25678,1.25678 -0.30705,0.53555 -0.45701,1.10682 -0.45701,1.71378 0,0.57127 0.14996,1.13539 0.45701,1.68523 0.29991,0.53556 0.72122,0.95686 1.25678,1.25678 0.54984,0.30705 1.1211,0.45701 1.71378,0.45701 0.57127,0 1.12111,-0.14996 1.65667,-0.45701 0.54984,-0.29992 0.97828,-0.72122 1.28534,-1.25678 0.29991,-0.54984 0.45701,-1.11396 0.45701,-1.68523 0,-0.60696 -0.1571,-1.17823 -0.45701,-1.71378 -0.30706,-0.54984 -0.7355,-0.97115 -1.28534,-1.25678 -0.53556,-0.29991 -1.0854,-0.45701 -1.65667,-0.45701 z m -1.79947,5.68406 v -4.39872 h 1.51384 c 0.51414,0 0.88546,0.0428 1.11397,0.11425 0.2285,0.0786 0.40702,0.22137 0.5427,0.42845 0.12853,0.1928 0.19994,0.39988 0.19994,0.62839 0,0.32847 -0.11426,0.6141 -0.34276,0.85689 -0.22851,0.22851 -0.52842,0.36418 -0.88546,0.39989 0.14996,0.0571 0.27135,0.13567 0.37132,0.2285 0.17138,0.17138 0.37846,0.45701 0.62839,0.85689 l 0.5427,0.88546 h -0.85689 l -0.39989,-0.71408 c -0.30705,-0.52841 -0.55698,-0.86403 -0.74264,-0.99971 -0.13567,-0.11425 -0.32847,-0.17138 -0.57126,-0.17138 h -0.39988 v 1.88517 z m 0.71408,-2.48499 h 0.85689 c 0.39988,0 0.67123,-0.0571 0.82833,-0.17138 0.14996,-0.12853 0.22851,-0.29991 0.22851,-0.51414 0,-0.11425 -0.0428,-0.21422 -0.11426,-0.31419 -0.0571,-0.11425 -0.15709,-0.18566 -0.28563,-0.2285 -0.13567,-0.0571 -0.37132,-0.0857 -0.71408,-0.0857 h -0.79976 z m 0,0"
       style="fill:#00737d;fill-opacity:1;fill-rule:nonzero;stroke:none;stroke-width:2.43739"
       aria-label="®" /></g></svg>
